<?xml version="1.0" encoding="utf-8"?>
<!-- Generator: Adobe Illustrator 26.0.1, SVG Export Plug-In . SVG Version: 6.00 Build 0)  -->
<svg version="1.1" id="Layer_1" xmlns="http://www.w3.org/2000/svg" xmlns:xlink="http://www.w3.org/1999/xlink" x="0px" y="0px"
	 viewBox="0 0 951.5 280.9" style="enable-background:new 0 0 951.5 280.9;" xml:space="preserve">
<style type="text/css">
	.st0{fill:#22B573;}
	.st1{opacity:0.59;fill:#24915D;enable-background:new    ;}
	.st2{opacity:0.59;}
	.st3{fill:#24915D;}
	.st4{fill:#FFFFFF;}
</style>
<path class="st0" d="M70.6,13.1h144.6c30.8,0,55.8,25,55.8,55.8v144.6c0,30.8-25,55.8-55.8,55.8H70.6c-30.8,0-55.8-25-55.8-55.8
	V68.9C14.7,38.1,39.7,13.1,70.6,13.1z"/>
<path class="st1" d="M127.5,164.9l-0.3,66.1h31l0.4-76.6L127.5,164.9z"/>
<g class="st2">
	<path class="st3" d="M188.5,139.5c11.6-7,19.8-22.7,19.8-42.3c0-29.1-19-46.6-53-46.6H89.1l-7.8,119.8L188.5,139.5z"/>
</g>
<path class="st4" d="M180.7,137.4c11.6-7,19.8-20.6,19.8-40.2c0-29.1-19-46.6-53-46.6H81.3v119.8L180.7,137.4L180.7,137.4z"/>
<polygon class="st1" points="86.4,178.3 81.3,230.9 113.1,230.9 113.2,169.3 "/>
<polygon class="st4" points="81.3,179.9 81.3,230.9 107.9,230.9 108.2,171 "/>
<path class="st4" d="M122,166.4l-0.3,64.5h31l0.3-74.8L122,166.4z"/>
<path class="st1" d="M214.4,180.1c0-18.1-6.2-31.1-16.4-38.9l-25,8.3l-6.4,80.4C194.8,228.4,214.4,206.6,214.4,180.1z"/>
<path class="st4" d="M208.4,182.2c0-18.1-6.3-31.2-16.6-39l-24.8,8.2l-0.4,78.4C194.2,225.6,208.4,208.8,208.4,182.2z"/>
<path class="st0" d="M146.2,77.5l-0.8,0.1c-19,3.9-33.8,18.9-37.4,38V77.5H146.2z"/>
<path class="st1" d="M114,77.5V100c-2.9,4.8-4.9,10.1-5.9,15.6V77.5H114z"/>
<path class="st0" d="M146.2,77.5l-0.8,0.1c-13.2,2.7-24.6,10.8-31.5,22.4V77.5H146.2z"/>
<path d="M434.4,132.8c0,19.8-15.5,31.3-45.1,31.3H332V48.8h54c27.7,0,42.5,11.7,42.5,30c0,11.9-5.9,20.6-14.8,25.4
	C426,108.1,434.4,117.8,434.4,132.8z M353.4,65.6v31.8h30.3c14.8,0,23.2-5.3,23.2-15.8c0-10.7-8.4-16-23.2-16L353.4,65.6z
	 M412.9,130.6c0-11.5-8.7-16.6-24.9-16.6h-34.6v33.3H388C404.2,147.3,412.9,142.2,412.9,130.6L412.9,130.6z"/>
<path d="M533.7,137.4h-57.6l-11.4,26.7h-22.1l51.9-115.2h21.1l52,115.2h-22.4L533.7,137.4z M526.6,120.6l-21.7-50.4l-21.6,50.4
	L526.6,120.6z"/>
<path d="M659.3,164.1l-23.5-33.8c-1.5,0.1-3,0.2-4.4,0.2h-26v33.6h-21.4V48.8h47.4c30.3,0,49.1,15.5,49.1,41
	c0,17.5-8.9,30.3-24.5,36.4l26.5,37.9L659.3,164.1z M630.3,67h-25v45.9h25c18.8,0,28.5-8.6,28.5-23S649.1,67,630.3,67L630.3,67z"/>
<path d="M780.6,137.4H723l-11.4,26.7h-22.1l51.9-115.2h21.1l52,115.2h-22.3L780.6,137.4z M773.6,120.6l-21.7-50.4l-21.6,50.4
	L773.6,120.6z"/>
<path d="M870.5,115.9l-18.3,18.8v29.5h-21.4V48.8h21.4v59.1l57-59.1h24l-48.4,51.5l51.3,63.7h-25L870.5,115.9z"/>
<path d="M358.4,229.2c0,5.5-4.1,8.7-12.2,8.7h-15v-32.5h14c7.3,0,11.4,3.1,11.4,8.4c0.1,3.3-1.9,6.3-5,7.4
	C355.9,222.1,358.4,224.9,358.4,229.2z M334.6,208.2V220H345c5.2,0,8.2-2,8.2-5.9s-3-5.9-8.2-5.9H334.6z M354.9,229
	c0-4.2-3.1-6.1-8.8-6.1h-11.5v12.3h11.5C351.8,235.1,354.9,233.2,354.9,229L354.9,229z"/>
<path d="M372.5,224.1v-18.7h3.4v18.5c0,7.7,3.6,11.3,10,11.3s10-3.5,10-11.3v-18.5h3.3v18.7c0,9.3-5,14.2-13.3,14.2
	S372.5,233.4,372.5,224.1z"/>
<path d="M413,234l1.3-2.7c3,2.6,6.8,4,10.8,4c6.1,0,8.7-2.6,8.7-5.8c0-8.9-20-3.4-20-15.5c0-4.8,3.7-8.9,12-8.9
	c3.6,0,7.1,1,10.1,2.9l-1.2,2.7c-2.7-1.7-5.8-2.7-8.9-2.7c-6,0-8.6,2.7-8.6,5.9c0,8.9,20,3.5,20,15.4c0,4.8-3.8,8.9-12.1,8.9
	C420.2,238.2,415.4,236.5,413,234z"/>
<path d="M451.2,205.4h3.4V238h-3.4V205.4z"/>
<path d="M499,205.4V238h-2.8l-21-26.4V238h-3.4v-32.6h2.8l21,26.4v-26.4H499z"/>
<path d="M539.2,235v3h-23v-32.6h22.3v3h-19V220h16.8v2.9h-16.8V235L539.2,235z"/>
<path d="M550.6,234l1.3-2.7c3,2.6,6.8,4,10.7,4c6.1,0,8.8-2.6,8.8-5.8c0-8.9-20-3.4-20-15.5c0-4.8,3.7-8.9,12-8.9
	c3.6,0,7.1,1,10.1,2.9l-1.2,2.7c-2.7-1.7-5.8-2.7-8.9-2.7c-6,0-8.6,2.7-8.6,5.9c0,8.9,20,3.5,20,15.4c0,4.8-3.8,8.9-12.1,8.9
	C557.8,238.2,553,236.5,550.6,234z"/>
<path d="M585.7,234l1.3-2.7c3,2.6,6.8,4,10.7,4c6.1,0,8.7-2.6,8.7-5.8c0-8.9-20-3.4-20-15.5c0-4.8,3.7-8.9,12-8.9
	c3.6,0,7.1,1,10.1,2.9l-1.2,2.7c-2.7-1.7-5.8-2.7-8.9-2.7c-6,0-8.6,2.7-8.6,5.9c0,8.9,20,3.5,20,15.4c0,4.8-3.8,8.9-12.1,8.9
	C592.9,238.2,588.2,236.5,585.7,234z"/>
<path d="M647,235v3h-23v-32.6h22.3v3h-18.9V220h16.8v2.9h-16.8V235L647,235z"/>
<path d="M658.5,234l1.3-2.7c3,2.6,6.8,4,10.8,4c6.1,0,8.7-2.6,8.7-5.8c0-8.9-20-3.4-20-15.5c0-4.8,3.7-8.9,12-8.9
	c3.6,0,7.1,1,10.1,2.9l-1.2,2.7c-2.7-1.7-5.8-2.7-8.9-2.7c-6,0-8.6,2.7-8.6,5.9c0,8.9,20,3.5,20,15.4c0,4.8-3.8,8.9-12.1,8.9
	C665.7,238.2,660.9,236.5,658.5,234z"/>
<path d="M740.9,216.6c0,6.9-5,11.1-13.3,11.1h-8.7V238h-3.4v-32.6h12.2C735.9,205.4,740.9,209.6,740.9,216.6z M737.5,216.6
	c0-5.2-3.4-8.2-10-8.2h-8.7v16.3h8.7C734,224.7,737.5,221.7,737.5,216.6z"/>
<path d="M781.6,205.4L767.2,238h-3.4l-14.4-32.6h3.8l12.5,28.3l12.5-28.3H781.6z"/>
<path d="M799.7,208.4h-11.5v-3h26.3v3h-11.4V238h-3.4L799.7,208.4z"/>
<path d="M845.2,205.4h3.4V235h18.2v3h-21.7L845.2,205.4z"/>
<path d="M882.4,208.4H871v-3h26.3v3h-11.4V238h-3.4L882.4,208.4z"/>
<path d="M909.3,205.4h13.2c10.4,0,17.4,6.7,17.4,16.3s-7,16.3-17.4,16.3h-13.2V205.4z M922.4,235c8.7,0,14.2-5.5,14.2-13.3
	s-5.6-13.3-14.2-13.3h-9.6V235H922.4z"/>
</svg>
